<svg width="151" height="40" viewBox="0 0 151 40" fill="none" xmlns="http://www.w3.org/2000/svg">
<rect width="151" height="40" fill="#FBF3EB"/>
<path d="M40.8943 20.7V25.38C40.3076 25.812 39.681 26.1293 39.0143 26.332C38.353 26.5293 37.6436 26.628 36.8863 26.628C35.9423 26.628 35.0863 26.4813 34.3183 26.188C33.5556 25.8947 32.9023 25.4867 32.3583 24.964C31.8196 24.4413 31.4036 23.8173 31.1103 23.092C30.817 22.3667 30.6703 21.5747 30.6703 20.716C30.6703 19.8467 30.8116 19.0493 31.0943 18.324C31.377 17.5987 31.777 16.9747 32.2943 16.452C32.817 15.9293 33.449 15.524 34.1903 15.236C34.9316 14.948 35.7636 14.804 36.6863 14.804C37.1556 14.804 37.593 14.8413 37.9983 14.916C38.409 14.9907 38.7876 15.0947 39.1343 15.228C39.4863 15.356 39.8063 15.5133 40.0943 15.7C40.3823 15.8867 40.6463 16.092 40.8863 16.316L40.2703 17.292C40.1743 17.4467 40.049 17.5427 39.8943 17.58C39.7396 17.612 39.5716 17.572 39.3903 17.46C39.2143 17.3587 39.0383 17.2573 38.8623 17.156C38.6863 17.0547 38.489 16.9667 38.2703 16.892C38.057 16.8173 37.8143 16.756 37.5423 16.708C37.2756 16.66 36.9663 16.636 36.6143 16.636C36.0436 16.636 35.5263 16.732 35.0623 16.924C34.6036 17.116 34.2116 17.3907 33.8863 17.748C33.561 18.1053 33.3103 18.5347 33.1343 19.036C32.9583 19.5373 32.8703 20.0973 32.8703 20.716C32.8703 21.3773 32.9636 21.9693 33.1503 22.492C33.3423 23.0093 33.609 23.4493 33.9503 23.812C34.297 24.1693 34.713 24.444 35.1983 24.636C35.6836 24.8227 36.225 24.916 36.8223 24.916C37.249 24.916 37.6303 24.8707 37.9663 24.78C38.3023 24.6893 38.6303 24.5667 38.9503 24.412V22.316H37.4943C37.3556 22.316 37.2463 22.2787 37.1663 22.204C37.0916 22.124 37.0543 22.028 37.0543 21.916V20.7H40.8943ZM48.6499 21.452C48.6499 21.196 48.6126 20.956 48.5379 20.732C48.4686 20.5027 48.3619 20.3027 48.2179 20.132C48.0739 19.9613 47.8899 19.828 47.6659 19.732C47.4473 19.6307 47.1913 19.58 46.8979 19.58C46.3273 19.58 45.8766 19.7427 45.5459 20.068C45.2206 20.3933 45.0126 20.8547 44.9219 21.452H48.6499ZM44.8819 22.644C44.9139 23.0653 44.9886 23.4307 45.1059 23.74C45.2233 24.044 45.3779 24.2973 45.5699 24.5C45.7619 24.6973 45.9886 24.8467 46.2499 24.948C46.5166 25.044 46.8099 25.092 47.1299 25.092C47.4499 25.092 47.7246 25.0547 47.9539 24.98C48.1886 24.9053 48.3913 24.8227 48.5619 24.732C48.7379 24.6413 48.8899 24.5587 49.0179 24.484C49.1513 24.4093 49.2793 24.372 49.4019 24.372C49.5673 24.372 49.6899 24.4333 49.7699 24.556L50.3379 25.276C50.1193 25.532 49.8739 25.748 49.6019 25.924C49.3299 26.0947 49.0446 26.2333 48.7459 26.34C48.4526 26.4413 48.1513 26.5133 47.8419 26.556C47.5379 26.5987 47.2419 26.62 46.9539 26.62C46.3833 26.62 45.8526 26.5267 45.3619 26.34C44.8713 26.148 44.4446 25.868 44.0819 25.5C43.7193 25.1267 43.4339 24.668 43.2259 24.124C43.0179 23.5747 42.9139 22.94 42.9139 22.22C42.9139 21.66 43.0046 21.1347 43.1859 20.644C43.3673 20.148 43.6259 19.7187 43.9619 19.356C44.3033 18.988 44.7166 18.6973 45.2019 18.484C45.6926 18.2707 46.2446 18.164 46.8579 18.164C47.3753 18.164 47.8526 18.2467 48.2899 18.412C48.7273 18.5773 49.1033 18.82 49.4179 19.14C49.7326 19.4547 49.9779 19.844 50.1539 20.308C50.3353 20.7667 50.4259 21.292 50.4259 21.884C50.4259 22.1827 50.3939 22.3853 50.3299 22.492C50.2659 22.5933 50.1433 22.644 49.9619 22.644H44.8819ZM55.3667 26.628C54.652 26.628 54.1027 26.428 53.7187 26.028C53.34 25.6227 53.1507 25.0653 53.1507 24.356V19.772H52.3107C52.204 19.772 52.1134 19.7373 52.0387 19.668C51.964 19.5987 51.9267 19.4947 51.9267 19.356V18.572L53.2467 18.356L53.6627 16.116C53.6894 16.0093 53.74 15.9267 53.8147 15.868C53.8894 15.8093 53.9854 15.78 54.1027 15.78H55.1267V18.364H57.3187V19.772H55.1267V24.22C55.1267 24.476 55.188 24.676 55.3107 24.82C55.4387 24.964 55.612 25.036 55.8307 25.036C55.9534 25.036 56.0547 25.0227 56.1347 24.996C56.22 24.964 56.292 24.932 56.3507 24.9C56.4147 24.868 56.4707 24.8387 56.5187 24.812C56.5667 24.78 56.6147 24.764 56.6627 24.764C56.7214 24.764 56.7694 24.78 56.8067 24.812C56.844 24.8387 56.884 24.8813 56.9267 24.94L57.5187 25.9C57.2307 26.14 56.9 26.3213 56.5267 26.444C56.1534 26.5667 55.7667 26.628 55.3667 26.628ZM69.9672 22.132L68.5592 18.284C68.4899 18.1133 68.4179 17.9107 68.3432 17.676C68.2685 17.4413 68.1939 17.188 68.1192 16.916C68.0499 17.188 67.9779 17.444 67.9032 17.684C67.8285 17.9187 67.7565 18.124 67.6872 18.3L66.2872 22.132H69.9672ZM73.7672 26.5H72.1032C71.9165 26.5 71.7645 26.4547 71.6472 26.364C71.5299 26.268 71.4419 26.1507 71.3832 26.012L70.5192 23.652H65.7272L64.8632 26.012C64.8205 26.1347 64.7379 26.2467 64.6152 26.348C64.4925 26.4493 64.3405 26.5 64.1592 26.5H62.4792L67.0312 14.932H69.2232L73.7672 26.5ZM77.3009 19.716C77.5569 19.2253 77.8609 18.8413 78.2129 18.564C78.5649 18.2813 78.9809 18.14 79.4609 18.14C79.8396 18.14 80.1436 18.2227 80.3729 18.388L80.2449 19.868C80.2183 19.964 80.1783 20.0333 80.1249 20.076C80.0769 20.1133 80.0103 20.132 79.9249 20.132C79.8449 20.132 79.7249 20.1187 79.5649 20.092C79.4103 20.0653 79.2583 20.052 79.1089 20.052C78.8903 20.052 78.6956 20.084 78.5249 20.148C78.3543 20.212 78.1996 20.3053 78.0609 20.428C77.9276 20.5453 77.8076 20.6893 77.7009 20.86C77.5996 21.0307 77.5036 21.2253 77.4129 21.444V26.5H75.4369V18.292H76.5969C76.7996 18.292 76.9409 18.3293 77.0209 18.404C77.1009 18.4733 77.1543 18.6013 77.1809 18.788L77.3009 19.716ZM90.4857 26.5H88.5097V19.772H84.7017V24.22C84.7017 24.476 84.763 24.676 84.8857 24.82C85.0137 24.964 85.187 25.036 85.4057 25.036C85.5284 25.036 85.6297 25.0227 85.7097 24.996C85.795 24.964 85.867 24.932 85.9257 24.9C85.9897 24.868 86.0457 24.8387 86.0937 24.812C86.1417 24.78 86.1897 24.764 86.2377 24.764C86.2964 24.764 86.3444 24.78 86.3817 24.812C86.419 24.8387 86.459 24.8813 86.5017 24.94L87.0937 25.9C86.8057 26.14 86.475 26.3213 86.1017 26.444C85.7284 26.5667 85.3417 26.628 84.9417 26.628C84.227 26.628 83.6777 26.428 83.2937 26.028C82.915 25.6227 82.7257 25.0653 82.7257 24.356V19.772H81.8857C81.779 19.772 81.6884 19.7373 81.6137 19.668C81.539 19.5987 81.5017 19.4947 81.5017 19.356V18.572L82.8217 18.348L83.2377 16.116C83.2644 16.0093 83.315 15.9267 83.3897 15.868C83.4644 15.8093 83.5604 15.78 83.6777 15.78H84.7017V18.364H90.4857V26.5ZM90.8297 15.868C90.8297 16.0387 90.795 16.2013 90.7257 16.356C90.6564 16.5053 90.563 16.636 90.4457 16.748C90.3337 16.86 90.1977 16.9507 90.0377 17.02C89.883 17.084 89.7177 17.116 89.5417 17.116C89.371 17.116 89.211 17.084 89.0617 17.02C88.9124 16.9507 88.7817 16.86 88.6697 16.748C88.5577 16.636 88.467 16.5053 88.3977 16.356C88.3337 16.2013 88.3017 16.0387 88.3017 15.868C88.3017 15.692 88.3337 15.5293 88.3977 15.38C88.467 15.2253 88.5577 15.092 88.6697 14.98C88.7817 14.8627 88.9124 14.772 89.0617 14.708C89.211 14.6387 89.371 14.604 89.5417 14.604C89.7177 14.604 89.883 14.6387 90.0377 14.708C90.1977 14.772 90.3337 14.8627 90.4457 14.98C90.563 15.092 90.6564 15.2253 90.7257 15.38C90.795 15.5293 90.8297 15.692 90.8297 15.868ZM99.1826 20.028C99.1239 20.1027 99.0652 20.1613 99.0066 20.204C98.9532 20.2467 98.8732 20.268 98.7666 20.268C98.6652 20.268 98.5666 20.2387 98.4706 20.18C98.3746 20.116 98.2599 20.0467 98.1266 19.972C97.9932 19.892 97.8332 19.8227 97.6466 19.764C97.4652 19.7 97.2386 19.668 96.9666 19.668C96.6199 19.668 96.3159 19.732 96.0546 19.86C95.7932 19.9827 95.5746 20.1613 95.3986 20.396C95.2279 20.6307 95.0999 20.916 95.0146 21.252C94.9292 21.5827 94.8866 21.9587 94.8866 22.38C94.8866 22.8173 94.9319 23.2067 95.0226 23.548C95.1186 23.8893 95.2546 24.1773 95.4306 24.412C95.6066 24.6413 95.8199 24.8173 96.0706 24.94C96.3212 25.0573 96.6039 25.116 96.9186 25.116C97.2332 25.116 97.4866 25.0787 97.6786 25.004C97.8759 24.924 98.0412 24.8387 98.1746 24.748C98.3079 24.652 98.4226 24.5667 98.5186 24.492C98.6199 24.412 98.7319 24.372 98.8546 24.372C99.0146 24.372 99.1346 24.4333 99.2146 24.556L99.7826 25.276C99.5639 25.532 99.3266 25.748 99.0706 25.924C98.8146 26.0947 98.5479 26.2333 98.2706 26.34C97.9986 26.4413 97.7159 26.5133 97.4226 26.556C97.1346 26.5987 96.8466 26.62 96.5586 26.62C96.0519 26.62 95.5746 26.5267 95.1266 26.34C94.6786 26.148 94.2866 25.8707 93.9506 25.508C93.6146 25.1453 93.3479 24.7027 93.1506 24.18C92.9586 23.652 92.8626 23.052 92.8626 22.38C92.8626 21.7773 92.9479 21.22 93.1186 20.708C93.2946 20.1907 93.5506 19.7453 93.8866 19.372C94.2226 18.9933 94.6386 18.6973 95.1346 18.484C95.6306 18.2707 96.2012 18.164 96.8466 18.164C97.4599 18.164 97.9959 18.2627 98.4546 18.46C98.9186 18.6573 99.3346 18.94 99.7026 19.308L99.1826 20.028ZM103.821 14.612V26.5H101.845V14.612H103.821ZM111.878 21.452C111.878 21.196 111.841 20.956 111.766 20.732C111.697 20.5027 111.59 20.3027 111.446 20.132C111.302 19.9613 111.118 19.828 110.894 19.732C110.675 19.6307 110.419 19.58 110.126 19.58C109.555 19.58 109.105 19.7427 108.774 20.068C108.449 20.3933 108.241 20.8547 108.15 21.452H111.878ZM108.11 22.644C108.142 23.0653 108.217 23.4307 108.334 23.74C108.451 24.044 108.606 24.2973 108.798 24.5C108.99 24.6973 109.217 24.8467 109.478 24.948C109.745 25.044 110.038 25.092 110.358 25.092C110.678 25.092 110.953 25.0547 111.182 24.98C111.417 24.9053 111.619 24.8227 111.79 24.732C111.966 24.6413 112.118 24.5587 112.246 24.484C112.379 24.4093 112.507 24.372 112.63 24.372C112.795 24.372 112.918 24.4333 112.998 24.556L113.566 25.276C113.347 25.532 113.102 25.748 112.83 25.924C112.558 26.0947 112.273 26.2333 111.974 26.34C111.681 26.4413 111.379 26.5133 111.07 26.556C110.766 26.5987 110.47 26.62 110.182 26.62C109.611 26.62 109.081 26.5267 108.59 26.34C108.099 26.148 107.673 25.868 107.31 25.5C106.947 25.1267 106.662 24.668 106.454 24.124C106.246 23.5747 106.142 22.94 106.142 22.22C106.142 21.66 106.233 21.1347 106.414 20.644C106.595 20.148 106.854 19.7187 107.19 19.356C107.531 18.988 107.945 18.6973 108.43 18.484C108.921 18.2707 109.473 18.164 110.086 18.164C110.603 18.164 111.081 18.2467 111.518 18.412C111.955 18.5773 112.331 18.82 112.646 19.14C112.961 19.4547 113.206 19.844 113.382 20.308C113.563 20.7667 113.654 21.292 113.654 21.884C113.654 22.1827 113.622 22.3853 113.558 22.492C113.494 22.5933 113.371 22.644 113.19 22.644H108.11ZM117.801 19.716C118.057 19.2253 118.361 18.8413 118.713 18.564C119.065 18.2813 119.481 18.14 119.961 18.14C120.34 18.14 120.644 18.2227 120.873 18.388L120.745 19.868C120.718 19.964 120.678 20.0333 120.625 20.076C120.577 20.1133 120.51 20.132 120.425 20.132C120.345 20.132 120.225 20.1187 120.065 20.092C119.91 20.0653 119.758 20.052 119.609 20.052C119.39 20.052 119.196 20.084 119.025 20.148C118.854 20.212 118.7 20.3053 118.561 20.428C118.428 20.5453 118.308 20.6893 118.201 20.86C118.1 21.0307 118.004 21.2253 117.913 21.444V26.5H115.937V18.292H117.097C117.3 18.292 117.441 18.3293 117.521 18.404C117.601 18.4733 117.654 18.6013 117.681 18.788L117.801 19.716Z" fill="#333333"/>
</svg>
