<svg width="196" height="40" viewBox="0 0 196 40" fill="none" xmlns="http://www.w3.org/2000/svg">
<mask id="path-1-inside-1_1_652" fill="white">
<path d="M0 0H196V40H0V0Z"/>
</mask>
<path d="M0 0H196V40H0V0Z" fill="#FDD9D3"/>
<path d="M4 40V0H-4V40H4Z" fill="#333333" mask="url(#path-1-inside-1_1_652)"/>
<path d="M39.5384 20.4077H20.4615C20.2346 20.4077 20.0513 20.2244 20.0513 19.9974C20.0513 19.7705 20.2346 19.5872 20.4615 19.5872H38.5474L36.0577 17.0974C35.8974 16.9372 35.8974 16.6769 36.0577 16.5167C36.2179 16.3564 36.4782 16.3564 36.6385 16.5167L39.8295 19.7077C39.9474 19.8257 39.982 20.0013 39.9179 20.1551C39.8538 20.3077 39.7038 20.4077 39.5384 20.4077Z" fill="#333333"/>
<path d="M36.3436 23.6026C36.2385 23.6026 36.1333 23.5628 36.0538 23.4821C35.8936 23.3218 35.8936 23.0616 36.0538 22.9013L39.2487 19.7064C39.409 19.5462 39.6692 19.5462 39.8295 19.7064C39.9897 19.8667 39.9897 20.1269 39.8295 20.2872L36.6346 23.4821C36.5538 23.5628 36.4487 23.6026 36.3436 23.6026Z" fill="#333333"/>
<path d="M62.5855 17.036C62.5215 17.148 62.4522 17.2307 62.3775 17.284C62.3082 17.332 62.2202 17.356 62.1135 17.356C62.0015 17.356 61.8788 17.316 61.7455 17.236C61.6175 17.1507 61.4628 17.0573 61.2815 16.956C61.1002 16.8547 60.8868 16.764 60.6415 16.684C60.4015 16.5987 60.1162 16.556 59.7855 16.556C59.4868 16.556 59.2255 16.5933 59.0015 16.668C58.7775 16.7373 58.5882 16.836 58.4335 16.964C58.2842 17.092 58.1722 17.2467 58.0975 17.428C58.0228 17.604 57.9855 17.7987 57.9855 18.012C57.9855 18.284 58.0602 18.5107 58.2095 18.692C58.3642 18.8733 58.5668 19.028 58.8175 19.156C59.0682 19.284 59.3535 19.3987 59.6735 19.5C59.9935 19.6013 60.3215 19.7107 60.6575 19.828C60.9935 19.94 61.3215 20.0733 61.6415 20.228C61.9615 20.3773 62.2468 20.5693 62.4975 20.804C62.7482 21.0333 62.9482 21.316 63.0975 21.652C63.2522 21.988 63.3295 22.396 63.3295 22.876C63.3295 23.3987 63.2388 23.8893 63.0575 24.348C62.8815 24.8013 62.6202 25.1987 62.2735 25.54C61.9322 25.876 61.5135 26.1427 61.0175 26.34C60.5215 26.532 59.9535 26.628 59.3135 26.628C58.9455 26.628 58.5828 26.5907 58.2255 26.516C57.8682 26.4467 57.5242 26.3453 57.1935 26.212C56.8682 26.0787 56.5615 25.9187 56.2735 25.732C55.9855 25.5453 55.7295 25.3373 55.5055 25.108L56.1375 24.076C56.1908 24.0013 56.2602 23.94 56.3455 23.892C56.4308 23.8387 56.5215 23.812 56.6175 23.812C56.7508 23.812 56.8948 23.868 57.0495 23.98C57.2042 24.0867 57.3882 24.2067 57.6015 24.34C57.8148 24.4733 58.0628 24.596 58.3455 24.708C58.6335 24.8147 58.9775 24.868 59.3775 24.868C59.9908 24.868 60.4655 24.724 60.8015 24.436C61.1375 24.1427 61.3055 23.724 61.3055 23.18C61.3055 22.876 61.2282 22.628 61.0735 22.436C60.9242 22.244 60.7242 22.084 60.4735 21.956C60.2228 21.8227 59.9375 21.7107 59.6175 21.62C59.2975 21.5293 58.9722 21.4307 58.6415 21.324C58.3108 21.2173 57.9855 21.0893 57.6655 20.94C57.3455 20.7907 57.0602 20.596 56.8095 20.356C56.5588 20.116 56.3562 19.8173 56.2015 19.46C56.0522 19.0973 55.9775 18.652 55.9775 18.124C55.9775 17.7027 56.0602 17.292 56.2255 16.892C56.3962 16.492 56.6415 16.1373 56.9615 15.828C57.2815 15.5187 57.6762 15.2707 58.1455 15.084C58.6148 14.8973 59.1535 14.804 59.7615 14.804C60.4442 14.804 61.0735 14.9107 61.6495 15.124C62.2255 15.3373 62.7162 15.636 63.1215 16.02L62.5855 17.036ZM72.6261 18.292V26.5H71.4181C71.1568 26.5 70.9915 26.38 70.9221 26.14L70.7861 25.484C70.4501 25.8253 70.0795 26.1027 69.6741 26.316C69.2688 26.524 68.7915 26.628 68.2421 26.628C67.7941 26.628 67.3968 26.5533 67.0501 26.404C66.7088 26.2493 66.4208 26.0333 66.1861 25.756C65.9515 25.4787 65.7728 25.1507 65.6501 24.772C65.5328 24.388 65.4741 23.9667 65.4741 23.508V18.292H67.4501V23.508C67.4501 24.0093 67.5648 24.3987 67.7941 24.676C68.0288 24.948 68.3781 25.084 68.8421 25.084C69.1835 25.084 69.5035 25.0093 69.8021 24.86C70.1008 24.7053 70.3835 24.4947 70.6501 24.228V18.292H72.6261ZM77.3614 24.372C77.5854 24.644 77.828 24.836 78.0894 24.948C78.356 25.06 78.636 25.116 78.9294 25.116C79.2334 25.116 79.5054 25.0627 79.7454 24.956C79.9907 24.844 80.1987 24.6733 80.3694 24.444C80.54 24.2093 80.6707 23.9133 80.7614 23.556C80.852 23.1933 80.8974 22.7613 80.8974 22.26C80.8974 21.3587 80.748 20.708 80.4494 20.308C80.1507 19.9027 79.7214 19.7 79.1614 19.7C78.7827 19.7 78.452 19.788 78.1694 19.964C77.8867 20.1347 77.6174 20.3773 77.3614 20.692V24.372ZM77.3614 19.3C77.692 18.9533 78.0574 18.6787 78.4574 18.476C78.8627 18.268 79.324 18.164 79.8414 18.164C80.316 18.164 80.7427 18.2573 81.1214 18.444C81.5054 18.6307 81.8307 18.9 82.0974 19.252C82.3694 19.5987 82.5774 20.02 82.7214 20.516C82.8654 21.012 82.9374 21.5693 82.9374 22.188C82.9374 22.8547 82.8547 23.46 82.6894 24.004C82.524 24.548 82.2867 25.0147 81.9774 25.404C81.6734 25.788 81.3054 26.0867 80.8734 26.3C80.4414 26.5133 79.9614 26.62 79.4334 26.62C79.1774 26.62 78.9454 26.5933 78.7374 26.54C78.5294 26.492 78.3374 26.4227 78.1614 26.332C77.9854 26.2413 77.8227 26.132 77.6734 26.004C77.5294 25.8707 77.3907 25.724 77.2574 25.564L77.1694 26.116C77.1374 26.2547 77.0814 26.3533 77.0014 26.412C76.9267 26.4707 76.8227 26.5 76.6894 26.5H75.3854V14.612H77.3614V19.3ZM85.2635 26.5V18.292H86.4715C86.7275 18.292 86.8955 18.412 86.9755 18.652L87.1035 19.26C87.2475 19.1 87.3968 18.9533 87.5515 18.82C87.7115 18.6867 87.8795 18.572 88.0555 18.476C88.2368 18.38 88.4288 18.3053 88.6315 18.252C88.8395 18.1933 89.0662 18.164 89.3115 18.164C89.8288 18.164 90.2528 18.3053 90.5835 18.588C90.9195 18.8653 91.1702 19.236 91.3355 19.7C91.4635 19.428 91.6235 19.196 91.8155 19.004C92.0075 18.8067 92.2182 18.6467 92.4475 18.524C92.6768 18.4013 92.9195 18.3107 93.1755 18.252C93.4368 18.1933 93.6982 18.164 93.9595 18.164C94.4128 18.164 94.8155 18.2333 95.1675 18.372C95.5195 18.5107 95.8155 18.7133 96.0555 18.98C96.2955 19.2467 96.4768 19.572 96.5995 19.956C96.7275 20.34 96.7915 20.78 96.7915 21.276V26.5H94.8155V21.276C94.8155 20.7533 94.7008 20.3613 94.4715 20.1C94.2422 19.8333 93.9062 19.7 93.4635 19.7C93.2608 19.7 93.0715 19.7347 92.8955 19.804C92.7248 19.8733 92.5728 19.9747 92.4395 20.108C92.3115 20.236 92.2102 20.3987 92.1355 20.596C92.0608 20.7933 92.0235 21.02 92.0235 21.276V26.5H90.0395V21.276C90.0395 20.7267 89.9275 20.3267 89.7035 20.076C89.4848 19.8253 89.1622 19.7 88.7355 19.7C88.4475 19.7 88.1782 19.772 87.9275 19.916C87.6822 20.0547 87.4528 20.2467 87.2395 20.492V26.5H85.2635ZM101.518 18.292V26.5H99.5338V18.292H101.518ZM101.79 15.9C101.79 16.0707 101.755 16.2307 101.686 16.38C101.616 16.5293 101.523 16.66 101.406 16.772C101.294 16.884 101.16 16.9747 101.006 17.044C100.851 17.108 100.686 17.14 100.51 17.14C100.339 17.14 100.176 17.108 100.022 17.044C99.8724 16.9747 99.7418 16.884 99.6298 16.772C99.5178 16.66 99.4271 16.5293 99.3578 16.38C99.2938 16.2307 99.2618 16.0707 99.2618 15.9C99.2618 15.724 99.2938 15.5587 99.3578 15.404C99.4271 15.2493 99.5178 15.116 99.6298 15.004C99.7418 14.892 99.8724 14.804 100.022 14.74C100.176 14.6707 100.339 14.636 100.51 14.636C100.686 14.636 100.851 14.6707 101.006 14.74C101.16 14.804 101.294 14.892 101.406 15.004C101.523 15.116 101.616 15.2493 101.686 15.404C101.755 15.5587 101.79 15.724 101.79 15.9ZM107.068 26.628C106.354 26.628 105.804 26.428 105.42 26.028C105.042 25.6227 104.852 25.0653 104.852 24.356V19.772H104.012C103.906 19.772 103.815 19.7373 103.74 19.668C103.666 19.5987 103.628 19.4947 103.628 19.356V18.572L104.948 18.356L105.364 16.116C105.391 16.0093 105.442 15.9267 105.516 15.868C105.591 15.8093 105.687 15.78 105.804 15.78H106.828V18.364H109.02V19.772H106.828V24.22C106.828 24.476 106.89 24.676 107.012 24.82C107.14 24.964 107.314 25.036 107.532 25.036C107.655 25.036 107.756 25.0227 107.836 24.996C107.922 24.964 107.994 24.932 108.052 24.9C108.116 24.868 108.172 24.8387 108.22 24.812C108.268 24.78 108.316 24.764 108.364 24.764C108.423 24.764 108.471 24.78 108.508 24.812C108.546 24.8387 108.586 24.8813 108.628 24.94L109.22 25.9C108.932 26.14 108.602 26.3213 108.228 26.444C107.855 26.5667 107.468 26.628 107.068 26.628ZM121.669 22.132L120.261 18.284C120.191 18.1133 120.119 17.9107 120.045 17.676C119.97 17.4413 119.895 17.188 119.821 16.916C119.751 17.188 119.679 17.444 119.605 17.684C119.53 17.9187 119.458 18.124 119.389 18.3L117.989 22.132H121.669ZM125.469 26.5H123.805C123.618 26.5 123.466 26.4547 123.349 26.364C123.231 26.268 123.143 26.1507 123.085 26.012L122.221 23.652H117.429L116.565 26.012C116.522 26.1347 116.439 26.2467 116.317 26.348C116.194 26.4493 116.042 26.5 115.861 26.5H114.181L118.733 14.932H120.925L125.469 26.5ZM129.003 19.716C129.259 19.2253 129.563 18.8413 129.915 18.564C130.267 18.2813 130.683 18.14 131.163 18.14C131.541 18.14 131.845 18.2227 132.075 18.388L131.947 19.868C131.92 19.964 131.88 20.0333 131.827 20.076C131.779 20.1133 131.712 20.132 131.627 20.132C131.547 20.132 131.427 20.1187 131.267 20.092C131.112 20.0653 130.96 20.052 130.811 20.052C130.592 20.052 130.397 20.084 130.227 20.148C130.056 20.212 129.901 20.3053 129.763 20.428C129.629 20.5453 129.509 20.6893 129.403 20.86C129.301 21.0307 129.205 21.2253 129.115 21.444V26.5H127.139V18.292H128.299C128.501 18.292 128.643 18.3293 128.723 18.404C128.803 18.4733 128.856 18.6013 128.883 18.788L129.003 19.716ZM142.187 26.5H140.211V19.772H136.403V24.22C136.403 24.476 136.465 24.676 136.587 24.82C136.715 24.964 136.889 25.036 137.107 25.036C137.23 25.036 137.331 25.0227 137.411 24.996C137.497 24.964 137.569 24.932 137.627 24.9C137.691 24.868 137.747 24.8387 137.795 24.812C137.843 24.78 137.891 24.764 137.939 24.764C137.998 24.764 138.046 24.78 138.083 24.812C138.121 24.8387 138.161 24.8813 138.203 24.94L138.795 25.9C138.507 26.14 138.177 26.3213 137.803 26.444C137.43 26.5667 137.043 26.628 136.643 26.628C135.929 26.628 135.379 26.428 134.995 26.028C134.617 25.6227 134.427 25.0653 134.427 24.356V19.772H133.587C133.481 19.772 133.39 19.7373 133.315 19.668C133.241 19.5987 133.203 19.4947 133.203 19.356V18.572L134.523 18.348L134.939 16.116C134.966 16.0093 135.017 15.9267 135.091 15.868C135.166 15.8093 135.262 15.78 135.379 15.78H136.403V18.364H142.187V26.5ZM142.531 15.868C142.531 16.0387 142.497 16.2013 142.427 16.356C142.358 16.5053 142.265 16.636 142.147 16.748C142.035 16.86 141.899 16.9507 141.739 17.02C141.585 17.084 141.419 17.116 141.243 17.116C141.073 17.116 140.913 17.084 140.763 17.02C140.614 16.9507 140.483 16.86 140.371 16.748C140.259 16.636 140.169 16.5053 140.099 16.356C140.035 16.2013 140.003 16.0387 140.003 15.868C140.003 15.692 140.035 15.5293 140.099 15.38C140.169 15.2253 140.259 15.092 140.371 14.98C140.483 14.8627 140.614 14.772 140.763 14.708C140.913 14.6387 141.073 14.604 141.243 14.604C141.419 14.604 141.585 14.6387 141.739 14.708C141.899 14.772 142.035 14.8627 142.147 14.98C142.265 15.092 142.358 15.2253 142.427 15.38C142.497 15.5293 142.531 15.692 142.531 15.868ZM150.884 20.028C150.825 20.1027 150.767 20.1613 150.708 20.204C150.655 20.2467 150.575 20.268 150.468 20.268C150.367 20.268 150.268 20.2387 150.172 20.18C150.076 20.116 149.961 20.0467 149.828 19.972C149.695 19.892 149.535 19.8227 149.348 19.764C149.167 19.7 148.94 19.668 148.668 19.668C148.321 19.668 148.017 19.732 147.756 19.86C147.495 19.9827 147.276 20.1613 147.1 20.396C146.929 20.6307 146.801 20.916 146.716 21.252C146.631 21.5827 146.588 21.9587 146.588 22.38C146.588 22.8173 146.633 23.2067 146.724 23.548C146.82 23.8893 146.956 24.1773 147.132 24.412C147.308 24.6413 147.521 24.8173 147.772 24.94C148.023 25.0573 148.305 25.116 148.62 25.116C148.935 25.116 149.188 25.0787 149.38 25.004C149.577 24.924 149.743 24.8387 149.876 24.748C150.009 24.652 150.124 24.5667 150.22 24.492C150.321 24.412 150.433 24.372 150.556 24.372C150.716 24.372 150.836 24.4333 150.916 24.556L151.484 25.276C151.265 25.532 151.028 25.748 150.772 25.924C150.516 26.0947 150.249 26.2333 149.972 26.34C149.7 26.4413 149.417 26.5133 149.124 26.556C148.836 26.5987 148.548 26.62 148.26 26.62C147.753 26.62 147.276 26.5267 146.828 26.34C146.38 26.148 145.988 25.8707 145.652 25.508C145.316 25.1453 145.049 24.7027 144.852 24.18C144.66 23.652 144.564 23.052 144.564 22.38C144.564 21.7773 144.649 21.22 144.82 20.708C144.996 20.1907 145.252 19.7453 145.588 19.372C145.924 18.9933 146.34 18.6973 146.836 18.484C147.332 18.2707 147.903 18.164 148.548 18.164C149.161 18.164 149.697 18.2627 150.156 18.46C150.62 18.6573 151.036 18.94 151.404 19.308L150.884 20.028ZM155.523 14.612V26.5H153.547V14.612H155.523ZM163.58 21.452C163.58 21.196 163.542 20.956 163.468 20.732C163.398 20.5027 163.292 20.3027 163.148 20.132C163.004 19.9613 162.82 19.828 162.596 19.732C162.377 19.6307 162.121 19.58 161.828 19.58C161.257 19.58 160.806 19.7427 160.476 20.068C160.15 20.3933 159.942 20.8547 159.852 21.452H163.58ZM159.812 22.644C159.844 23.0653 159.918 23.4307 160.036 23.74C160.153 24.044 160.308 24.2973 160.5 24.5C160.692 24.6973 160.918 24.8467 161.18 24.948C161.446 25.044 161.74 25.092 162.06 25.092C162.38 25.092 162.654 25.0547 162.884 24.98C163.118 24.9053 163.321 24.8227 163.492 24.732C163.668 24.6413 163.82 24.5587 163.948 24.484C164.081 24.4093 164.209 24.372 164.332 24.372C164.497 24.372 164.62 24.4333 164.7 24.556L165.268 25.276C165.049 25.532 164.804 25.748 164.532 25.924C164.26 26.0947 163.974 26.2333 163.676 26.34C163.382 26.4413 163.081 26.5133 162.772 26.556C162.468 26.5987 162.172 26.62 161.884 26.62C161.313 26.62 160.782 26.5267 160.292 26.34C159.801 26.148 159.374 25.868 159.012 25.5C158.649 25.1267 158.364 24.668 158.156 24.124C157.948 23.5747 157.844 22.94 157.844 22.22C157.844 21.66 157.934 21.1347 158.116 20.644C158.297 20.148 158.556 19.7187 158.892 19.356C159.233 18.988 159.646 18.6973 160.132 18.484C160.622 18.2707 161.174 18.164 161.788 18.164C162.305 18.164 162.782 18.2467 163.22 18.412C163.657 18.5773 164.033 18.82 164.348 19.14C164.662 19.4547 164.908 19.844 165.084 20.308C165.265 20.7667 165.356 21.292 165.356 21.884C165.356 22.1827 165.324 22.3853 165.26 22.492C165.196 22.5933 165.073 22.644 164.892 22.644H159.812Z" fill="#333333"/>
</svg>
